HIERARCHY
ROOT Hips
{
	OFFSET 55.678600 -10.688815 94.507301
	CHANNELS 6 Xposition Yposition Zposition Xrotation Yrotation Zrotation
	JOINT spine
	{
		OFFSET 0.000000 -0.448574 7.800583
		CHANNELS 3 Xrotation Yrotation Zrotation
		JOINT spine1
		{
			OFFSET 0.000000 -0.000002 10.136398
			CHANNELS 3 Xrotation Yrotation Zrotation
			JOINT spine2
			{
				OFFSET 0.000000 -0.000002 9.712509
				CHANNELS 3 Xrotation Yrotation Zrotation
				JOINT Neck
				{
					OFFSET 0.000000 -1.188873 24.936104
					CHANNELS 3 Xrotation Yrotation Zrotation
					JOINT Head
					{
						OFFSET 0.000000 -0.000001 7.533844
						CHANNELS 3 Xrotation Yrotation Zrotation
						End Site
						{
							OFFSET 0.000000 6.014017 18.236099
						}
					}
				}
				JOINT RightShoulder
				{
					OFFSET -4.089649 0.569455 10.488808
					CHANNELS 3 Xrotation Yrotation Zrotation
					JOINT RightArm
					{
						OFFSET 0.000000 -0.000002 13.757004
						CHANNELS 3 Xrotation Yrotation Zrotation
						JOINT RightArmRoll
						{
							OFFSET 0.000000 -0.000001 6.944778
							CHANNELS 3 Xrotation Yrotation Zrotation
							JOINT RightForeArm
							{
								OFFSET 0.000000 -0.000004 20.227692
								CHANNELS 3 Xrotation Yrotation Zrotation
								JOINT RightForeArmRoll
								{
									OFFSET 0.000000 -0.000001 7.793121
									CHANNELS 3 Xrotation Yrotation Zrotation
									JOINT RightHand
									{
										OFFSET 0.000000 -0.000003 15.639099
										CHANNELS 3 Xrotation Yrotation Zrotation
										End Site
										{
											OFFSET 0.000000 0.000000 0.100006
										}
									}
								}
							}
						}
					}
				}
				JOINT LeftShoulder
				{
					OFFSET 4.089649 0.569455 10.488808
					CHANNELS 3 Xrotation Yrotation Zrotation
					JOINT LeftArm
					{
						OFFSET 0.000000 -0.000002 13.757004
						CHANNELS 3 Xrotation Yrotation Zrotation
						JOINT LeftArmRoll
						{
							OFFSET 0.000000 -0.000001 6.944778
							CHANNELS 3 Xrotation Yrotation Zrotation
							JOINT LeftForeArm
							{
								OFFSET 0.000000 -0.000004 20.227692
								CHANNELS 3 Xrotation Yrotation Zrotation
								JOINT LeftForeArmRoll
								{
									OFFSET 0.000000 -0.000001 7.793121
									CHANNELS 3 Xrotation Yrotation Zrotation
									JOINT LeftHand
									{
										OFFSET 0.000000 -0.000003 15.639099
										CHANNELS 3 Xrotation Yrotation Zrotation
										End Site
										{
											OFFSET 0.000000 0.000000 0.100006
										}
									}
								}
							}
						}
					}
				}
			}
		}
	}
	JOINT RightUpLeg
	{
		OFFSET -6.914150 1.063581 -1.267883
		CHANNELS 3 Xrotation Yrotation Zrotation
		JOINT RightUpLegRoll
		{
			OFFSET 0.000000 -0.000003 18.337799
			CHANNELS 3 Xrotation Yrotation Zrotation
			JOINT RightLeg
			{
				OFFSET 0.000000 0.000004 -22.708504
				CHANNELS 3 Xrotation Yrotation Zrotation
				JOINT RightLegRoll
				{
					OFFSET 0.000000 -0.000004 22.782799
					CHANNELS 3 Xrotation Yrotation Zrotation
					JOINT RightFoot
					{
						OFFSET 0.000000 -0.000003 18.962898
						CHANNELS 3 Xrotation Yrotation Zrotation
						JOINT RightToeBase
						{
							OFFSET 0.000000 -0.000003 15.852005
							CHANNELS 3 Xrotation Yrotation Zrotation
							End Site
							{
								OFFSET 0.006718 0.884892 7.677002
							}
						}
					}
				}
			}
		}
	}
	JOINT LeftUpLeg
	{
		OFFSET 6.914150 1.063581 -1.267883
		CHANNELS 3 Xrotation Yrotation Zrotation
		JOINT LeftUpLegRoll
		{
			OFFSET 0.000000 -0.000003 18.337898
			CHANNELS 3 Xrotation Yrotation Zrotation
			JOINT LeftLeg
			{
				OFFSET 0.000000 -0.000004 22.708405
				CHANNELS 3 Xrotation Yrotation Zrotation
				JOINT LeftLegRoll
				{
					OFFSET 0.000000 -0.000004 22.993393
					CHANNELS 3 Xrotation Yrotation Zrotation
					JOINT LeftFoot
					{
						OFFSET 0.000000 -0.000003 18.752197
						CHANNELS 3 Xrotation Yrotation Zrotation
						JOINT LeftToeBase
						{
							OFFSET 0.000000 -0.000003 15.852005
							CHANNELS 3 Xrotation Yrotation Zrotation
							End Site
							{
								OFFSET -0.030113 0.884892 7.677017
							}
						}
					}
				}
			}
		}
	}
}
MOTION
Frames: 6
Frame Time: 0.041667
51.674004 -6.729553 81.161308 0.818860 -1.539363 -0.377790 -1.208471 -0.010828 0.256159 1.585930 -0.024588 0.512321 3.230970 -0.018449 0.512578 -2.322379 17.629613 -2.279797 -3.220119 -17.527985 -4.133485 -17.363039 -12.808372 -19.881914 34.685268 -2.406379 103.608383 0.000001 0.000001 0.000004 52.399562 2.699066 2.584240 0.000001 -0.000007 -3.000003 -5.000230 -7.998776 0.000192 -19.095396 31.794951 22.651597 204.507789 169.624674 -265.648077 0.000005 -0.000000 -0.000005 54.317947 -8.862891 -0.856077 0.000001 -0.000004 3.000001 -5.000446 7.999023 -0.000176 -24.936959 -159.659661 -0.675197 -179.999991 0.000006 -1.025002 123.218361 8.373858 3.572129 0.000002 -0.000002 4.527802 91.756966 4.655915 11.919575 25.654202 -7.354815 0.267791 -27.775231 158.064607 -1.124927 -0.000003 -0.000004 -0.973283 -59.860837 -2.741213 -1.831495 -0.000004 -0.000000 -4.639040 87.370100 -5.751024 -5.335322 27.605671 7.261894 -2.655049 
51.609802 -6.763867 81.022003 0.826876 -1.566387 -0.374091 -1.196091 0.006090 0.256292 1.610630 0.009285 0.512806 3.255670 0.015427 0.512658 -2.387530 17.402998 -2.282035 -3.219128 -17.356824 -4.117407 -17.406590 -12.861131 -19.954114 34.522734 -2.098230 103.773673 0.000002 0.000001 0.000003 52.534332 2.693687 2.616901 -0.000001 -0.000006 -3.000003 -5.000227 -7.998775 0.000192 -19.152918 31.613930 22.734092 204.669760 169.794883 -266.068516 0.000004 0.000002 -0.000004 54.545805 -8.900125 -0.905879 0.000001 -0.000004 3.000001 -5.000447 7.999022 -0.000175 -25.083346 -159.631712 -0.757690 -179.999991 0.000004 -0.992995 122.832292 8.456229 3.574476 -0.000001 -0.000001 4.494080 91.970703 4.599209 12.321862 25.658852 -7.354848 0.274865 -27.894534 158.115806 -1.029273 -0.000006 -0.000004 -0.977234 -60.149938 -2.847340 -1.947024 -0.000005 -0.000000 -4.737288 87.711780 -5.726443 -5.455454 27.500490 7.270946 -2.524964 
51.672104 -6.724504 80.805992 0.830299 -1.595773 -0.374303 -1.184100 0.023959 0.256569 1.634531 0.045055 0.513572 3.279572 0.051205 0.512997 -2.433328 17.173218 -2.285017 -3.227843 -17.184206 -4.099900 -17.447223 -12.914259 -20.021596 34.371646 -1.804470 103.949844 -0.000001 0.000003 0.000004 52.663323 2.690518 2.647561 0.000000 -0.000007 -3.000001 -5.000230 -7.998776 0.000192 -19.208252 31.430113 22.813218 204.837455 169.956512 -266.481333 0.000005 0.000001 -0.000003 54.766888 -8.933726 -0.954967 0.000001 -0.000005 3.000001 -5.000447 7.999024 -0.000177 -25.218636 -159.602260 -0.842102 -179.999991 0.000007 -0.961002 122.467450 8.541187 3.574880 -0.000001 -0.000001 4.454102 92.162946 4.541054 12.722231 25.668850 -7.354835 0.288461 -27.994142 158.172606 -0.934657 -0.000004 -0.000005 -0.981420 -60.416910 -2.952532 -2.062381 -0.000006 -0.000002 -4.833283 88.040906 -5.702376 -5.575480 27.398397 7.279301 -2.398582 
51.607903 -6.765157 80.691002 0.830885 -1.627479 -0.378420 -1.172882 0.042475 0.257073 1.656892 0.082117 0.514782 3.301934 0.088278 0.513762 -2.461617 16.946051 -2.288505 -3.244794 -17.014461 -4.081598 -17.485009 -12.966015 -20.084246 34.233045 -1.526263 104.133289 0.000001 0.000004 0.000004 52.781670 2.690252 2.675358 0.000001 -0.000006 -3.000002 -5.000230 -7.998773 0.000191 -19.260935 31.247374 22.888654 205.007991 170.111039 -266.883932 0.000004 0.000000 -0.000005 54.978525 -8.964450 -1.002534 0.000000 -0.000005 3.000001 -5.000447 7.999019 -0.000175 -25.345131 -159.571633 -0.928207 -179.999991 0.000006 -0.928997 122.123058 8.628293 3.573527 -0.000002 -0.000004 4.409051 92.336494 4.482134 13.120555 25.682985 -7.354776 0.307121 -28.077299 158.233736 -0.842498 -0.000004 -0.000001 -0.985736 -60.664791 -3.055157 -2.176253 -0.000001 -0.000001 -4.926641 88.358127 -5.678941 -5.694740 27.299793 7.286957 -2.276372 
51.667904 -6.738294 80.510704 0.830388 -1.661476 -0.386434 -1.162793 0.061337 0.257885 1.676984 0.119864 0.516597 3.322028 0.126045 0.515125 -2.474203 16.726968 -2.292279 -3.268483 -16.851806 -4.063144 -17.520146 -13.014775 -20.142291 34.107960 -1.264697 104.319392 0.000000 0.000003 0.000003 52.884580 2.693562 2.699438 -0.000001 -0.000005 -3.000002 -5.000234 -7.998774 0.000191 -19.310927 31.069424 22.959971 205.178773 170.259909 -267.273635 0.000003 0.000002 -0.000001 55.177840 -8.992989 -1.048175 -0.000001 -0.000004 3.000001 -5.000446 7.999022 -0.000176 -25.464784 -159.541034 -1.015257 -179.999991 0.000007 -0.896008 121.798201 8.717073 3.570624 0.000002 -0.000000 4.360151 92.493909 4.423193 13.513667 25.700258 -7.354685 0.329450 -28.147862 158.297120 -0.753648 -0.000006 -0.000002 -0.990087 -60.896498 -3.153602 -2.287343 -0.000002 -0.000001 -5.017042 88.664018 -5.656431 -5.812205 27.204877 7.293954 -2.158791 
51.584602 -6.762863 80.381897 0.830574 -1.697692 -0.398335 -1.154212 0.080241 0.259092 1.694057 0.157690 0.519185 3.339104 0.163899 0.517261 -2.472903 16.521847 -2.296151 -3.297418 -16.700455 -4.045233 -17.552707 -13.058994 -20.195975 33.997646 -1.020829 104.504428 -0.000000 0.000002 0.000003 52.966997 2.701141 2.718941 0.000001 -0.000006 -3.000002 -5.000230 -7.998774 0.000192 -19.358278 30.900343 23.027226 205.347260 170.404491 -267.647684 0.000006 0.000000 -0.000004 55.362037 -9.020046 -1.091065 0.000001 -0.000004 3.000001 -5.000446 7.999023 -0.000176 -25.579755 -159.509861 -1.103347 -179.999991 0.000005 -0.864000 121.492222 8.806553 3.566428 -0.000000 -0.000003 4.308591 92.637883 4.364939 13.900448 25.719243 -7.354555 0.353959 -28.208910 158.363304 -0.670433 -0.000004 -0.000004 -0.994369 -61.114818 -3.246247 -2.394323 -0.000001 -0.000001 -5.104101 88.959170 -5.635272 -5.926924 27.114068 7.300281 -2.046307 
